<svg width="35" height="35" viewBox="0 0 35 35" fill="none" xmlns="http://www.w3.org/2000/svg">
<g clip-path="url(#clip0_6_244)">
<path d="M34.8883 17.4371C34.8883 27.0673 27.0813 34.8741 17.4512 34.8741C7.82098 34.8741 0.0141296 27.0673 0.0141296 17.4371C0.0141296 7.80683 7.82098 0 17.4512 0C27.0813 0 34.8883 7.80683 34.8883 17.4371Z" fill="white"/>
<path d="M19.2199 12.9132H21.2458V9.97339H18.8642V9.98399C15.9784 10.0844 15.387 11.6778 15.3349 13.3514H15.3289V14.8194H13.3639V17.6985H15.3289V25.4158H18.2904V17.6985H20.7164L21.1849 14.8194H18.2913V13.9325C18.2913 13.3669 18.6745 12.9132 19.2199 12.9132Z" fill="#6F2CF5"/>
</g>
<defs>
<clipPath id="clip0_6_244">
<rect width="35" height="35" fill="white"/>
</clipPath>
</defs>
</svg>
