<svg width="35" height="35" viewBox="0 0 35 35" fill="none" xmlns="http://www.w3.org/2000/svg">
<g clip-path="url(#clip0_6_240)">
<path d="M34.8741 17.4371C34.8741 27.0673 27.0673 34.8741 17.4371 34.8741C7.80683 34.8741 0 27.0673 0 17.4371C0 7.80683 7.80683 0 17.4371 0C27.0673 0 34.8741 7.80683 34.8741 17.4371Z" fill="white"/>
<path fill-rule="evenodd" clip-rule="evenodd" d="M16.8496 22.9578H17.965C17.965 22.9578 18.3019 22.921 18.4739 22.7359C18.6322 22.5662 18.6272 22.2473 18.6272 22.2473C18.6272 22.2473 18.6054 20.7548 19.3 20.5349C19.9847 20.3185 20.864 21.9776 21.7959 22.6154C22.5006 23.0982 23.036 22.9924 23.036 22.9924L25.5281 22.9578C25.5281 22.9578 26.8315 22.8777 26.2134 21.8555C26.1629 21.7718 25.8535 21.0994 24.3608 19.7174C22.7983 18.271 23.0075 18.505 24.8896 16.0031C26.036 14.4794 26.4942 13.5492 26.351 13.1508C26.2144 12.7713 25.3714 12.8716 25.3714 12.8716L22.5657 12.889C22.5657 12.889 22.3577 12.8607 22.2035 12.9527C22.0528 13.0429 21.9556 13.2531 21.9556 13.2531C21.9556 13.2531 21.5117 14.4322 20.9193 15.4349C19.6701 17.5508 19.1705 17.6624 18.9663 17.5311C18.4914 17.2249 18.6099 16.301 18.6099 15.6446C18.6099 13.5941 18.9218 12.7392 18.0027 12.5179C17.6977 12.4444 17.4733 12.3959 16.6933 12.388C15.6922 12.3777 14.8449 12.3911 14.3651 12.6255C14.0459 12.7814 13.7997 13.1288 13.9497 13.1487C14.1351 13.1735 14.5551 13.2617 14.7778 13.5641C15.0653 13.9542 15.0552 14.8303 15.0552 14.8303C15.0552 14.8303 15.2203 17.2441 14.6693 17.5439C14.2911 17.7496 13.7724 17.3297 12.6585 15.4101C12.0878 14.4268 11.6569 13.34 11.6569 13.34C11.6569 13.34 11.5738 13.1369 11.4256 13.0282C11.2458 12.8966 10.9945 12.8547 10.9945 12.8547L8.32835 12.8721C8.32835 12.8721 7.92811 12.8832 7.78119 13.0568C7.65048 13.2111 7.77081 13.5305 7.77081 13.5305C7.77081 13.5305 9.85812 18.4009 12.2216 20.8554C14.3887 23.1056 16.8496 22.9578 16.8496 22.9578Z" fill="#6F2CF5"/>
</g>
<defs>
<clipPath id="clip0_6_240">
<rect width="35" height="35" fill="white"/>
</clipPath>
</defs>
</svg>
