<svg width="103" height="39" viewBox="0 0 103 39" fill="none" xmlns="http://www.w3.org/2000/svg">
<rect y="3" width="32" height="32" rx="9" fill="white"/>
<path d="M10.0341 31H4.76136L12.7955 7.72727H19.1364L27.1591 31H21.8864L16.0568 13.0455H15.875L10.0341 31ZM9.70455 21.8523H22.1591V25.6932H9.70455V21.8523Z" fill="#6F2CF5"/>
<path d="M44.5582 15.4545V30H41.483V15.4545H44.5582ZM48.8001 30.1847C48.3313 30.1847 47.9289 30.0189 47.5927 29.6875C47.2612 29.3513 47.0955 28.9489 47.0955 28.4801C47.0955 28.0161 47.2612 27.6184 47.5927 27.2869C47.9289 26.9555 48.3313 26.7898 48.8001 26.7898C49.2546 26.7898 49.6523 26.9555 49.9933 27.2869C50.3342 27.6184 50.5046 28.0161 50.5046 28.4801C50.5046 28.7926 50.4241 29.0791 50.2631 29.3395C50.1069 29.5952 49.9009 29.8011 49.6452 29.9574C49.3896 30.1089 49.1078 30.1847 48.8001 30.1847Z" fill="white"/>
<path d="M56.1353 15.4545H59.9279L63.9336 25.2273H64.104L68.1097 15.4545H71.9023V30H68.9194V20.5327H68.7987L65.0344 29.929H63.0032L59.239 20.4972H59.1183V30H56.1353V15.4545ZM76.1477 30.1847C75.679 30.1847 75.2765 30.0189 74.9403 29.6875C74.6089 29.3513 74.4432 28.9489 74.4432 28.4801C74.4432 28.0161 74.6089 27.6184 74.9403 27.2869C75.2765 26.9555 75.679 26.7898 76.1477 26.7898C76.6023 26.7898 77 26.9555 77.3409 27.2869C77.6818 27.6184 77.8523 28.0161 77.8523 28.4801C77.8523 28.7926 77.7718 29.0791 77.6108 29.3395C77.4545 29.5952 77.2486 29.8011 76.9929 29.9574C76.7372 30.1089 76.4555 30.1847 76.1477 30.1847Z" fill="white"/>
<path d="M89.6236 19.6378C89.5668 19.0649 89.3229 18.6198 88.892 18.3026C88.4612 17.9853 87.8764 17.8267 87.1378 17.8267C86.6359 17.8267 86.2121 17.8977 85.8665 18.0398C85.5208 18.1771 85.2557 18.3688 85.071 18.6151C84.8911 18.8613 84.8011 19.1406 84.8011 19.4531C84.7917 19.7135 84.8461 19.9408 84.9645 20.1349C85.0876 20.3291 85.2557 20.4972 85.4688 20.6392C85.6818 20.7765 85.928 20.8973 86.2074 21.0014C86.4867 21.1009 86.785 21.1861 87.1023 21.2571L88.4091 21.5696C89.0436 21.7116 89.6259 21.901 90.1562 22.1378C90.6866 22.3745 91.1458 22.6657 91.5341 23.0114C91.9223 23.357 92.223 23.7642 92.4361 24.233C92.6539 24.7017 92.7652 25.2391 92.7699 25.8452C92.7652 26.7353 92.5379 27.5071 92.0881 28.1605C91.643 28.8092 90.9991 29.3134 90.1562 29.6733C89.3182 30.0284 88.3073 30.206 87.1236 30.206C85.9493 30.206 84.9266 30.026 84.0554 29.6662C83.1889 29.3063 82.5118 28.7737 82.0241 28.0682C81.5412 27.358 81.2879 26.4796 81.2642 25.4332H84.2401C84.2732 25.9209 84.4129 26.3281 84.6591 26.6548C84.91 26.9768 85.2438 27.2206 85.6605 27.3864C86.0819 27.5473 86.5578 27.6278 87.0881 27.6278C87.6089 27.6278 88.0611 27.5521 88.4446 27.4006C88.8329 27.2491 89.1335 27.0384 89.3466 26.7685C89.5597 26.4986 89.6662 26.1884 89.6662 25.8381C89.6662 25.5114 89.5691 25.2367 89.375 25.0142C89.1856 24.7917 88.9063 24.6023 88.5369 24.446C88.1723 24.2898 87.7249 24.1477 87.1946 24.0199L85.6108 23.6222C84.3845 23.3239 83.4162 22.8575 82.706 22.223C81.9957 21.5885 81.643 20.7339 81.6477 19.6591C81.643 18.7784 81.8774 18.009 82.3509 17.3509C82.8291 16.6927 83.4848 16.179 84.3182 15.8097C85.1515 15.4403 86.0985 15.2557 87.1591 15.2557C88.2386 15.2557 89.1809 15.4403 89.9858 15.8097C90.7955 16.179 91.4252 16.6927 91.875 17.3509C92.3248 18.009 92.5568 18.7713 92.571 19.6378H89.6236ZM96.5501 30.1847C96.0813 30.1847 95.6789 30.0189 95.3427 29.6875C95.0112 29.3513 94.8455 28.9489 94.8455 28.4801C94.8455 28.0161 95.0112 27.6184 95.3427 27.2869C95.6789 26.9555 96.0813 26.7898 96.5501 26.7898C97.0046 26.7898 97.4023 26.9555 97.7433 27.2869C98.0842 27.6184 98.2546 28.0161 98.2546 28.4801C98.2546 28.7926 98.1741 29.0791 98.0131 29.3395C97.8569 29.5952 97.6509 29.8011 97.3952 29.9574C97.1396 30.1089 96.8578 30.1847 96.5501 30.1847Z" fill="white"/>
</svg>
