<?xml version="1.0" standalone="no"?><svg xmlns="http://www.w3.org/2000/svg" viewBox="0 0 1440 320"><path fill="#6f2cf5" fill-opacity="1" d="M0,224L40,213.3C80,203,160,181,240,160C320,139,400,117,480,144C560,171,640,245,720,234.7C800,224,880,128,960,112C1040,96,1120,160,1200,197.3C1280,235,1360,245,1400,250.7L1440,256L1440,320L1400,320C1360,320,1280,320,1200,320C1120,320,1040,320,960,320C880,320,800,320,720,320C640,320,560,320,480,320C400,320,320,320,240,320C160,320,80,320,40,320L0,320Z"></path></svg>