<?xml version="1.0" standalone="no"?><svg xmlns="http://www.w3.org/2000/svg" viewBox="0 0 1440 320"><path fill="#6f2cf5" fill-opacity="1" d="M0,224L34.3,208C68.6,192,137,160,206,133.3C274.3,107,343,85,411,85.3C480,85,549,107,617,144C685.7,181,754,235,823,234.7C891.4,235,960,181,1029,160C1097.1,139,1166,149,1234,176C1302.9,203,1371,245,1406,266.7L1440,288L1440,0L1405.7,0C1371.4,0,1303,0,1234,0C1165.7,0,1097,0,1029,0C960,0,891,0,823,0C754.3,0,686,0,617,0C548.6,0,480,0,411,0C342.9,0,274,0,206,0C137.1,0,69,0,34,0L0,0Z"></path></svg>